<!DOCTYPE svg PUBLIC "-//W3C//DTD SVG 1.1//EN" "http://www.w3.org/Graphics/SVG/1.1/DTD/svg11.dtd">
<svg version="1.1" id="IconsRepoEditor" xmlns="http://www.w3.org/2000/svg" xmlns:xlink="http://www.w3.org/1999/xlink" x="0px" y="0px" viewBox="-34.07 -34.07 408.81 408.81" style="enable-background:new 0 0 340.671 340.671;" xml:space="preserve" width="128px" height="128px" fill="#fff" stroke="#fff" stroke-width="0" transform="rotate(0)matrix(1, 0, 0, 1, 0, 0)">
<g id="IconsRepo_bgCarrier">
<rect x="-34.07" y="-34.07" width="408.81" height="408.81" rx="204.405" fill="#7d48d0" stroke-width="0"/>
</g>  <path d="M333.719,188.805c-6.685-11.868-17.608-20.658-30.348-24.831c28.371-50.242-12.337-106.404-64.95-100.225 c-11.275-26.468-37.548-45.072-68.086-45.072c-30.538,0-56.811,18.604-68.086,45.072C49.618,57.565,8.962,113.795,37.3,163.974 c-12.74,4.173-23.662,12.963-30.347,24.831c-14.638,25.988-5.404,59.039,20.583,73.677c10.575,5.956,37.217,16.083,64.632,23.459 c2.121,13.797,14.639,26.992,32.121,32.931c6.113,2.077,12.375,3.123,18.4,3.123c4.495,0,8.859-0.582,12.932-1.754 c5.959-1.715,11.009-4.666,14.791-8.515c3.782,3.849,8.832,6.8,14.791,8.515c4.073,1.172,8.436,1.754,12.932,1.754 c6.025,0,12.288-1.047,18.4-3.123c17.51-5.948,30.029-19.161,32.129-32.975c27.358-7.373,53.917-17.471,64.472-23.416 C339.123,247.844,348.357,214.792,333.719,188.805z M242.913,78.401c39.142-2.472,67.13,38.682,49.375,74.501 c-9.879,19.933-55.003,80.943-90.051,108.406c0.192-0.349,0.384-0.696,0.576-1.052c24.398-45.37,41.49-138.589,41.49-167.612 C244.303,87.772,243.817,83.013,242.913,78.401z M97.758,78.4c-0.904,4.612-1.39,9.371-1.39,14.243 c0,29.142,17.291,123.541,42.062,168.659c-35.225-27.6-80.276-88.686-90.048-108.4C30.626,117.076,58.627,75.925,97.758,78.4z M34.897,249.412c-18.781-10.579-25.454-34.465-14.875-53.246c5.444-9.664,14.774-16.517,25.501-18.937 c20.361,30.747,61.814,82.435,92.657,102.428c-8.463-0.75-19.467-2.554-33.563-6.001 C73.85,266.131,44.358,254.741,34.897,249.412z M162.35,297.056c-1.847,5.438-7.608,7.829-10.877,8.77 c-6.521,1.876-14.671,1.455-22.359-1.157c-7.911-2.688-15.745-8.164-19.675-14.5c13.423,2.938,25.012,4.581,34.526,4.883 c1.056,0.033,2.085,0.05,3.089,0.05c6.248,0,11.511-0.655,15.844-1.968C162.949,294.41,162.8,295.732,162.35,297.056z M169.385,273.384c-28.038-4.417-58.017-142.218-58.017-180.74c0-32.515,26.453-58.967,58.968-58.967 s58.967,26.453,58.967,58.967c0,39.884-30.474,176.402-58.018,180.74C169.969,273.514,170.483,273.492,169.385,273.384z M211.71,304.669c-7.687,2.612-15.837,3.034-22.359,1.157c-3.27-0.941-9.03-3.331-10.877-8.77 c-0.444-1.308-0.596-2.613-0.55-3.873c4.303,1.283,9.52,1.919,15.694,1.919c1.004,0,2.035-0.017,3.089-0.05 c9.555-0.304,21.206-1.96,34.705-4.923C227.492,296.482,219.642,301.974,211.71,304.669z M305.774,249.412 c-9.461,5.329-38.954,16.719-69.72,24.244c-14.095,3.447-25.1,5.25-33.563,6.001c30.831-19.985,72.276-71.649,92.658-102.428 c10.727,2.42,20.058,9.274,25.501,18.937C331.228,214.947,324.555,238.833,305.774,249.412z"/> </svg>